<svg width="118" height="118" viewBox="0 0 118 118" fill="none" xmlns="http://www.w3.org/2000/svg">
<path d="M100.717 17.2836C90.0562 6.61509 75.2761 -0.000173459 59.0006 0.00305294C42.725 -0.000173459 27.9442 6.61509 17.2835 17.2836C6.61562 27.9443 0.00196862 42.7238 0.00427319 59C0.00173816 75.2763 6.61539 90.0557 17.2832 100.716C27.9439 111.385 42.7248 118 59.0003 117.997C75.2759 118 90.056 111.385 100.717 100.716C111.385 90.0557 117.999 75.2765 117.996 59C117.999 42.7238 111.385 27.9443 100.717 17.2836ZM59.0006 107.979C45.4594 107.976 33.2468 102.505 24.3675 93.6331C15.4972 84.7531 10.025 72.5403 10.0225 59C10.025 46.5491 14.659 35.2282 22.3014 26.5812L91.2546 95.8409C82.6291 103.397 71.374 107.976 59.0006 107.979ZM95.6978 91.4189L26.7446 22.1592C35.3704 14.6032 46.6271 10.0245 59.0006 10.0212C72.5415 10.0245 84.7536 15.4951 93.632 24.367C102.504 33.2455 107.974 45.46 107.978 59C107.974 71.4511 103.34 82.7703 95.6978 91.4189Z" fill="#BE2A2A"/>
<path d="M31.2662 75.1343C29.2281 75.1343 27.5739 76.4502 27.5739 78.0742V78.159C27.5739 79.7863 29.2274 81.1022 31.2662 81.1022H64.5037C66.5427 81.1022 68.197 79.7863 68.197 78.159V78.0742C68.197 76.4502 66.5443 75.1343 64.5037 75.1343H31.2662Z" fill="#BE2A2A"/>
<path d="M25.989 71.1068C26.1888 71.1068 26.3225 71.1232 26.4561 71.1736L26.7571 71.3237C26.9406 71.4412 27.141 71.6237 27.3743 71.8911C27.5414 72.0916 27.7248 72.3248 27.9587 72.576C28.2758 72.9429 28.677 73.3766 29.2444 73.7107C29.5281 73.8949 29.8625 74.0288 30.213 74.1281C30.5636 74.229 30.9475 74.2781 31.3487 74.2781C31.8156 74.2961 32.2666 74.2113 32.6679 74.0792C33.0184 73.9617 33.3184 73.8117 33.6021 73.6275C34.0863 73.3095 34.4369 72.9263 34.7376 72.5921C34.9545 72.3428 35.1388 72.1079 35.3223 71.9074C35.5725 71.6074 35.7894 71.4069 35.9899 71.2893L36.307 71.1573C36.4073 71.1232 36.5409 71.1066 36.7246 71.1066C36.9251 71.1066 37.0749 71.1229 37.1927 71.1734L37.5098 71.3234C37.6768 71.441 37.8767 71.6235 38.1108 71.8908C38.2779 72.0913 38.4786 72.3245 38.6952 72.5757C39.0287 72.9426 39.4297 73.3764 39.9971 73.7105C40.281 73.8947 40.5988 74.0285 40.9496 74.1279C41.3165 74.2288 41.7004 74.2779 42.1014 74.2779C42.5685 74.2959 43.0029 74.2111 43.4035 74.079C43.754 73.9615 44.0711 73.8115 44.3384 73.6273C44.8229 73.3093 45.1734 72.926 45.4741 72.5919C45.691 72.3425 45.8915 72.1077 46.0586 71.9072C46.3252 71.6071 46.5421 71.4066 46.7426 71.2891L47.0435 71.1571C47.1601 71.123 47.2938 71.1064 47.4609 71.1064C47.6775 71.1064 47.8114 71.1227 47.9451 71.1732L48.2451 71.3232C48.4293 71.4407 48.6291 71.6233 48.863 71.8906C49.0301 72.0911 49.2137 72.3243 49.4306 72.5755C49.7648 72.9424 50.166 73.3761 50.7332 73.7103C51.0168 73.8944 51.3342 74.0283 51.7018 74.1276C52.0523 74.2286 52.4362 74.2777 52.8365 74.2777C53.3046 74.2956 53.7381 74.2108 54.1393 74.0788C54.4898 73.9613 54.8072 73.8112 55.0906 73.6271C55.5587 73.3091 55.9256 72.9258 56.2093 72.5916C56.4432 72.3423 56.6266 72.1075 56.7937 71.907C57.0613 71.6069 57.2779 71.4064 57.4786 71.2889L57.7957 71.1568C57.896 71.1227 58.0297 71.1061 58.2131 71.1061C58.4136 71.1061 58.5638 71.1225 58.6802 71.173L58.9983 71.323C59.1646 71.4405 59.3651 71.623 59.5991 71.8904C59.7664 72.0909 59.9659 72.3241 60.1837 72.5753C60.5008 72.9422 60.9182 73.3759 61.4858 73.7101C61.7695 73.8942 62.0866 74.0281 62.4371 74.1274C62.7879 74.2284 63.1725 74.2954 63.5728 74.2954C64.04 74.2954 64.4744 74.2106 64.8749 74.0786L59.4654 68.652L59.4483 68.634L59.3488 68.6015C58.9983 68.5003 58.6134 68.4517 58.2131 68.4517C57.746 68.4517 57.2952 68.5186 56.894 68.6522C56.5432 68.7679 56.2261 68.9359 55.9588 69.1187C55.4746 69.4367 55.1238 69.8034 54.8238 70.1377C54.6062 70.3871 54.4228 70.6222 54.2393 70.8227C53.989 71.1227 53.7551 71.3232 53.5717 71.4407L53.2537 71.5744C53.137 71.6071 53.0204 71.6396 52.8363 71.6396C52.6367 71.6396 52.4855 71.6071 52.3692 71.5564L52.0521 71.4064C51.8686 71.2891 51.6842 71.1064 51.4513 70.839C51.2669 70.6549 51.0834 70.4214 50.8666 70.1705C50.5324 69.7875 50.1321 69.3701 49.5638 69.0193C49.2801 68.8513 48.963 68.7015 48.6125 68.602C48.2449 68.5008 47.8607 68.4522 47.4607 68.4522C46.9926 68.4522 46.5589 68.519 46.1577 68.6527C45.8071 68.7684 45.49 68.9364 45.2234 69.1191C44.7392 69.4372 44.3884 69.8038 44.0877 70.1382C43.8711 70.3876 43.6703 70.6226 43.5033 70.8231C43.2359 71.1232 43.0191 71.3237 42.8186 71.4412L42.5185 71.5749C42.4012 71.6076 42.2682 71.6401 42.1012 71.6401C41.8843 71.6401 41.7504 71.6076 41.617 71.5569L41.316 71.4069C41.1325 71.2896 40.932 71.1068 40.6979 70.8395C40.5315 70.639 40.3474 70.4219 40.1305 70.1709C39.7971 69.7879 39.3961 69.3706 38.8284 69.0198C38.5447 68.8518 38.2106 68.702 37.8601 68.6024C37.5093 68.5013 37.1254 68.4526 36.7244 68.4526C36.2572 68.4526 35.8062 68.5195 35.4052 68.6531C35.0547 68.7688 34.7547 68.9368 34.47 69.1196C34.0029 69.4376 33.6353 69.8043 33.3516 70.1387C33.1184 70.388 32.934 70.6231 32.767 70.8236C32.5003 71.1236 32.2835 71.3241 32.083 71.4417L31.7659 71.5753C31.6654 71.6081 31.5317 71.6242 31.3485 71.6406C31.1478 71.6244 30.9977 71.6081 30.8804 71.5574L30.5631 71.4073C30.396 71.29 30.1962 71.1073 29.9623 70.8399C29.7952 70.6394 29.5947 70.4224 29.3779 70.1714C29.0605 69.7884 28.6432 69.371 28.0758 69.0203C27.8085 68.8523 27.4741 68.7025 27.1235 68.6029C26.7728 68.5017 26.3888 68.4531 25.9885 68.4531C25.2531 68.4531 24.6523 69.0369 24.6523 69.7722C24.6528 70.5053 25.2536 71.1068 25.989 71.1068Z" fill="#BE2A2A"/>
<path d="M28.3761 66.1143H56.9444L41.2494 50.3353C33.1848 52.173 27.1408 57.3645 26.2059 63.0261C26.1552 63.2755 26.122 63.3423 26.1056 63.4091C26.0722 63.476 26.0722 63.5428 26.0722 63.8104C26.0722 65.3136 26.9069 66.1143 28.3761 66.1143ZM43.7538 55.6787C44.3382 55.6787 44.8226 56.1465 44.8226 56.7466C44.8226 57.332 44.3382 57.8001 43.7538 57.8001C43.1693 57.8001 42.6858 57.332 42.6858 56.7466C42.6858 56.1465 43.1693 55.6787 43.7538 55.6787ZM40.0476 52.4892C40.632 52.4892 41.0994 52.9734 41.0994 53.5587C41.0994 54.1425 40.6322 54.6105 40.0476 54.6105C39.4461 54.6105 38.9787 54.1425 38.9787 53.5587C38.9789 52.9734 39.4461 52.4892 40.0476 52.4892ZM35.7894 55.6787C36.3739 55.6787 36.8583 56.1465 36.8583 56.7466C36.8583 57.332 36.3739 57.8001 35.7894 57.8001C35.2057 57.8001 34.7376 57.332 34.7376 56.7466C34.7376 56.1465 35.2057 55.6787 35.7894 55.6787Z" fill="#BE2A2A"/>
<path d="M28.6263 83.2448C26.4398 83.2448 25.671 85.0156 25.671 87.2185V87.6195C25.671 89.8079 27.4579 91.5933 29.6454 91.5933H65.4598C67.4973 91.5933 69.1833 90.0573 69.4172 88.0714H78.8173L74.9106 84.1468H68.5995C68.1315 83.5791 67.4468 83.245 66.4789 83.245H28.6263V83.2448Z" fill="#BE2A2A"/>
<path d="M64.3536 20.6363L54.222 14.7548L52.1073 18.399L60.6317 23.3479L62.4035 31.5024H47.5613L47.7284 33.6055L48.1287 38.9148L52.3862 43.1902L51.7852 35.4091H85.7808L82.8408 73.7615L86.4818 77.4188L90.0041 31.5024H66.7146L64.3536 20.6363Z" fill="#BE2A2A"/>
</svg>
