<svg width="180" height="61" viewBox="0 0 180 61" fill="none" xmlns="http://www.w3.org/2000/svg">
<path fill-rule="evenodd" clip-rule="evenodd" d="M35.8215 0.487061C35.8215 0.487061 57.2052 6.78112 57.2052 17.1561C57.2052 25.1353 41.7865 33.377 34.4964 35.8148C27.2064 38.2531 18.5918 40.2226 18.5918 40.2226C18.5918 40.2226 37.0658 30.9716 39.2055 16.979C40.7082 7.1471 35.8215 0.487061 35.8215 0.487061V0.487061Z" fill="#CCCCCC"/>
<path fill-rule="evenodd" clip-rule="evenodd" d="M29.8353 40.5538C29.8353 40.5538 6.71447 46.4511 2.29679 48.8147C-2.12193 51.1779 -0.168296 53.0423 8.18731 56.1213C16.5733 59.2104 23.2083 60.1754 23.2083 60.1754C23.2083 60.1754 19.9881 57.5445 21.8832 51.6217C23.2578 47.3243 31.3082 41.0105 34.6953 39.6806C38.0825 38.3513 29.8353 40.5538 29.8353 40.5538V40.5538Z" fill="#CCCCCC"/>
<path fill-rule="evenodd" clip-rule="evenodd" d="M41.4884 44.5093L42.4711 39.0191H65.7754L64.7921 44.5093H56.1652L53.3506 60.2234H47.3264L50.141 44.5093H41.4884Z" fill="#CCCCCC"/>
<path fill-rule="evenodd" clip-rule="evenodd" d="M92.9986 49.6281C92.0778 54.7706 90.9521 57.8444 89.6215 58.8512C88.1626 59.9588 84.3209 60.513 78.095 60.513C73.5318 60.513 70.5687 60.3338 69.2091 59.9796C67.4999 59.5234 66.5462 58.5361 66.3429 57.0138C66.1884 55.8457 66.4459 53.3859 67.1186 49.6281C68.0433 44.4696 69.1619 41.3828 70.4751 40.3766C71.913 39.2683 75.7564 38.7148 81.9998 38.7148C88.2256 38.7148 91.8614 39.2582 92.9083 40.3457C93.8921 41.3727 93.9234 44.4696 92.9986 49.6281V49.6281ZM73.1429 49.6281C72.658 52.3358 72.6646 53.9122 73.1587 54.3565C73.6545 54.8003 75.6282 55.0228 79.0783 55.0228C82.5279 55.0228 84.5882 54.7961 85.2532 54.3411C85.9194 53.8878 86.4934 52.3168 86.9744 49.6281C87.4598 46.921 87.4537 45.3399 86.9596 44.8861C86.4677 44.4316 84.4945 44.2044 81.045 44.2044C77.5932 44.2044 75.5351 44.4316 74.8695 44.8861C74.2034 45.3399 73.6277 46.921 73.1429 49.6281Z" fill="#CCCCCC"/>
<path fill-rule="evenodd" clip-rule="evenodd" d="M103.935 39.0191L102.598 46.4837H115.605L116.942 39.0191H122.968L119.17 60.2234H113.144L114.622 51.9733H101.615L100.137 60.2234H94.1113L97.9092 39.0191H103.935Z" fill="#CCCCCC"/>
<path fill-rule="evenodd" clip-rule="evenodd" d="M135.401 39.0191H145.67L151.621 60.2234H144.583L143.353 56.6928H131.413L128.919 60.2234H121.88L135.401 39.0191ZM140.165 43.7713H139.206L134.642 51.2026H142.064L140.165 43.7713Z" fill="#CCCCCC"/>
<path fill-rule="evenodd" clip-rule="evenodd" d="M158.048 39.0191H172.782C175.994 39.0191 178.045 39.4451 178.934 40.2953C180.039 41.3638 180.285 43.6087 179.672 47.0289C179.059 50.451 178.019 52.6858 176.553 53.7353C175.339 54.6039 173.125 55.0394 169.912 55.0394H161.203L160.274 60.2234H154.25L158.048 39.0191V39.0191ZM162.186 49.5492H170.896C171.626 49.5492 172.203 49.3807 172.628 49.0455C173.137 48.651 173.478 47.9788 173.648 47.0289C173.818 46.0797 173.733 45.4235 173.397 45.0569C173.06 44.692 172.529 44.5093 171.799 44.5093H163.089L162.186 49.5492Z" fill="#CCCCCC"/>
</svg>
