<svg width="70" height="71" viewBox="0 0 70 71" fill="none" xmlns="http://www.w3.org/2000/svg">
<g clip-path="url(#clip0_165_8573)">
<path d="M23.1875 6.84277H22.3125V11.2178H23.1875V6.84277Z" fill="#37BD6B"/>
<path d="M35.4375 6.84277H34.5625V11.2178H35.4375V6.84277Z" fill="#37BD6B"/>
<path d="M63.4375 6.84277H59.2803V11.2178H63.4375C64.751 11.2178 65.624 12.0928 65.624 13.4043V61.5283C65.624 62.8428 64.749 63.7158 63.4375 63.7158H6.5625C5.25 63.7158 4.375 62.8408 4.375 61.5283V13.4053C4.375 12.0918 5.25 11.2188 6.5625 11.2188H10.9365V6.84375H6.5625C2.84277 6.84277 0 9.68652 0 13.4062V61.5303C0 65.25 2.84277 68.0938 6.5625 68.0938H63.4375C67.1562 68.0938 70 65.25 70 61.5303V13.4062C70 9.90625 66.9375 6.84277 63.4375 6.84277Z" fill="#37BD6B"/>
<path d="M47.4688 6.84277H46.8125V11.2178H47.4688V6.84277Z" fill="#37BD6B"/>
<path d="M53.375 15.376C55.3447 15.376 56.875 13.8447 56.875 11.876V6.40625C56.875 4.43652 55.3447 2.90625 53.375 2.90625C51.4062 2.90625 49.875 4.43652 49.875 6.40625V11.876C49.875 13.626 51.4072 15.376 53.375 15.376Z" fill="#37BD6B"/>
<path d="M41.124 15.376C43.0947 15.376 44.624 13.8447 44.624 11.876V6.40625C44.624 4.43652 43.0947 2.90625 41.124 2.90625C39.1553 2.90625 37.624 4.43652 37.624 6.40625V11.876C37.624 13.626 39.1562 15.376 41.124 15.376Z" fill="#37BD6B"/>
<path d="M28.875 15.376C30.8447 15.376 32.375 13.8447 32.375 11.876V6.40625C32.375 4.43652 30.8447 2.90625 28.875 2.90625C26.9063 2.90625 25.375 4.43652 25.375 6.40625V11.876C25.375 13.626 26.9063 15.376 28.875 15.376Z" fill="#37BD6B"/>
<path d="M16.625 15.376C18.5947 15.376 20.125 13.8447 20.125 11.876V6.40625C20.125 4.43652 18.5947 2.90625 16.625 2.90625C14.6563 2.90625 13.125 4.43652 13.125 6.40625V11.876C13.125 13.626 14.6563 15.376 16.625 15.376Z" fill="#37BD6B"/>
<path d="M34.3437 56.7197C44.6221 56.7197 52.9375 48.4053 52.9375 38.125C52.9375 27.8447 44.6221 19.5322 34.3437 19.5322C24.0625 19.5322 15.75 27.8447 15.75 38.125C15.75 48.4053 24.0625 56.7197 34.3437 56.7197ZM21 30.9062L22.3125 31.5625L22.75 30.9062L21.4365 30.25C22.75 28.2803 24.2803 26.5303 26.4678 25.2197L27.124 26.5322L27.7803 26.0947L27.124 24.7822C29.0937 23.6885 31.499 23.0322 33.9053 22.8125V24.3428H34.7803V22.8125C37.1875 22.8125 39.5937 23.4697 41.5605 24.7822L40.9043 26.0947L41.5605 26.5322L42.2168 25.2197C44.1875 26.5322 45.9375 28.2822 47.2471 30.25L45.9355 30.9062L46.3721 31.5625L47.6855 30.9062C48.7783 32.876 49.4355 35.2803 49.6553 37.6865H48.124V38.5615H49.6553C49.6553 40.9668 48.999 43.374 47.6865 45.3418L46.3721 44.6846L45.9375 45.3437L47.25 46C45.9375 47.9697 44.1875 49.7187 42.2197 51.0293L41.5635 49.7178L40.9072 50.1562L41.5635 51.4688C39.5938 52.5615 37.1895 53.2178 34.7832 53.4375V51.9062H33.9062V53.4365C31.5 53.4365 29.0937 52.7803 27.125 51.4668L27.7812 50.1543L27.125 49.7178L26.4687 51.0312C24.5 49.7178 22.75 47.9688 21.4375 46.002L22.751 45.3457L22.3135 44.6885L21.001 45.3457C19.9072 43.374 19.251 40.9717 19.0313 38.5645H20.5625V37.6895H19.0313C19.25 35.2812 19.9062 32.876 21 30.9062Z" fill="#37BD6B"/>
<path d="M34.3438 26.5312V38.125H45.9375C45.9375 31.7812 40.6875 26.5312 34.3438 26.5312Z" fill="#37BD6B"/>
</g>
<defs>
<clipPath id="clip0_165_8573">
<rect width="70" height="70" fill="white" transform="translate(0 0.5)"/>
</clipPath>
</defs>
</svg>
