<svg width="94" height="53" viewBox="0 0 94 53" fill="none" xmlns="http://www.w3.org/2000/svg">
<path d="M77.5646 13.6725C81.2667 13.6725 84.2702 10.6707 84.2702 6.96856C84.2702 3.26666 81.2667 0.264842 77.5646 0.264842C73.8627 0.264842 70.8591 3.26666 70.8591 6.96856C70.8591 10.6707 73.8629 13.6725 77.5646 13.6725Z" fill="#37BD6B" fill-opacity="0.95"/>
<path d="M93.4757 27.8885C85.9052 16.9031 87.6168 19.3866 85.2173 15.9055C84.4776 14.8303 82.9126 14.3556 81.8404 14.3556H81.1998C80.0983 14.9002 78.875 15.2343 77.5648 15.2343C76.2547 15.2343 75.0313 14.9 73.93 14.3556H73.2897C72.2155 14.3556 70.6642 14.8393 69.9293 15.9055C67.5359 19.3771 69.1832 16.9871 63.2148 25.6493L64.1283 26.8561C64.1283 26.8561 66.4181 29.5529 64.5265 32.7881L69.4898 32.8458C70.2206 31.2077 71.8559 30.0622 73.7655 30.0622C74.5238 30.0622 75.23 30.2589 75.863 30.5795C75.8035 30.2944 75.77 29.9997 75.7668 29.6976C75.7609 28.8833 75.9912 28.1266 76.3741 27.4706C75.8309 26.9873 75.1386 26.6624 74.3545 26.653L70.1429 26.6042L73.1816 22.1947L71.4746 25.317C74.5984 25.2911 75.9425 24.9508 77.57 26.1345C79.2186 24.9311 81.615 25.3001 83.6728 25.317L81.9658 22.1947L85.0045 26.6042L80.7928 26.653C79.0677 26.6731 77.6857 28.0886 77.7054 29.8135C77.7118 30.3611 77.8963 30.8461 78.1478 31.2902C78.9885 30.4955 80.1156 29.9997 81.3633 29.9997C83.2975 29.9997 84.9569 31.1727 85.6725 32.8458C86.905 32.8325 91.0021 32.9436 92.0086 32.5563C93.9074 31.8256 94.5615 29.4583 93.4757 27.8885Z" fill="#37BD6B" fill-opacity="0.95"/>
<path d="M81.3627 31.5615C79.5327 31.5615 78.2388 33.1877 78.2388 34.6854V49.675C78.2388 51.1697 79.5279 52.7989 81.3627 52.7989C83.088 52.7989 84.4866 51.3999 84.4866 49.675V34.6854C84.4866 32.9605 83.088 31.5615 81.3627 31.5615Z" fill="#37BD6B" fill-opacity="0.95"/>
<path d="M73.765 31.6241C72.0401 31.6241 70.6411 33.0228 70.6411 34.7479V49.6141C70.6411 51.3394 72.0401 52.7379 73.765 52.7379C75.4901 52.7379 76.8889 51.3394 76.8889 49.6141V34.7479C76.8889 33.023 75.4901 31.6241 73.765 31.6241Z" fill="#37BD6B" fill-opacity="0.95"/>
<path d="M16.4017 13.6725C20.1038 13.6725 23.107 10.6707 23.107 6.96856C23.107 3.26666 20.1036 0.264842 16.4017 0.264842C12.6996 0.264842 9.69635 3.26666 9.69635 6.96856C9.69615 10.6707 12.6994 13.6725 16.4017 13.6725Z" fill="#37BD6B" fill-opacity="0.95"/>
<path d="M24.0542 15.9055C23.3145 14.8303 21.7494 14.3556 20.6774 14.3556H20.0367C18.9352 14.9002 17.7116 15.2343 16.4017 15.2343C15.0915 15.2343 13.8682 14.9 12.7667 14.3556H12.1263C11.0509 14.3556 9.50421 14.8393 8.7659 15.9055C8.15861 16.7854 0.460524 27.7163 0.144533 28.7381C-0.363403 30.3503 0.51986 31.99 1.97378 32.5561C2.98647 32.9434 7.08978 32.8323 8.32646 32.8456C9.05721 31.2075 10.6925 30.062 12.6022 30.062C13.3602 30.062 14.0663 30.2587 14.6995 30.5793C14.6399 30.2942 14.6065 29.9995 14.6033 29.6974C14.5973 28.8831 14.8275 28.1265 15.2106 27.4704C14.6672 26.9871 13.9749 26.6622 13.1908 26.6528L8.97935 26.604L12.0178 22.1945L10.3108 25.3168C13.4347 25.2909 14.7787 24.9506 16.4062 26.1343C18.0549 24.9309 20.4512 25.2998 22.509 25.3168L20.8021 22.1945L23.8407 26.604L19.6291 26.6528C17.9042 26.6729 16.5221 28.0884 16.5418 29.8133C16.5482 30.3609 16.7328 30.8459 16.9843 31.29C17.8249 30.4953 18.9521 29.9995 20.1995 29.9995C22.1339 29.9995 23.7933 31.1725 24.5087 32.8456L29.474 32.7879C28.4978 31.3999 28.2839 29.5433 29.1094 27.9265C29.1094 27.9265 30.7216 25.59 30.725 25.5852C25.0854 17.4005 26.4795 19.4246 24.0542 15.9055Z" fill="#37BD6B" fill-opacity="0.95"/>
<path d="M20.1996 31.5615C18.3695 31.5615 17.0757 33.1877 17.0757 34.6854V49.675C17.0757 51.1697 18.3647 52.7989 20.1996 52.7989C21.9249 52.7989 23.3236 51.3999 23.3236 49.675V34.6854C23.3236 32.9605 21.9249 31.5615 20.1996 31.5615Z" fill="#37BD6B" fill-opacity="0.95"/>
<path d="M12.602 31.6241C10.8769 31.6241 9.47815 33.0228 9.47815 34.7479V49.6141C9.47815 51.3394 10.8769 52.7379 12.602 52.7379C14.3269 52.7379 15.7259 51.3394 15.7259 49.6141V34.7479C15.7259 33.023 14.3269 31.6241 12.602 31.6241Z" fill="#37BD6B" fill-opacity="0.95"/>
<path d="M61.4282 35.3552L57.8953 39.315C57.4666 39.7954 56.9573 40.1536 56.4095 40.4147L53.9083 48.6743C53.4077 50.3265 54.3411 52.0699 55.9914 52.5701C57.6587 53.0749 59.393 52.1187 59.8872 50.4864L63.3163 39.1623C63.7938 37.5867 62.9551 35.9362 61.4282 35.3552Z" fill="#37BD6B" fill-opacity="0.95"/>
<path d="M37.5261 40.3858C36.9985 40.1282 36.5045 39.7803 36.0895 39.3152L32.6282 35.4363C31.048 35.9866 30.1803 37.6815 30.6651 39.2861L34.0942 50.6102C34.593 52.2531 36.3257 53.1987 37.9901 52.6939C39.6405 52.1934 40.5739 50.4499 40.0736 48.7981L37.5261 40.3858Z" fill="#37BD6B" fill-opacity="0.95"/>
<path d="M56.7301 38.276L62.6454 31.6472C63.4842 30.7213 63.669 28.9424 62.8865 27.7941C60.7325 24.6703 62.6362 27.4323 54.6281 15.8107C53.8898 14.7415 52.3447 14.2611 51.2675 14.2611H50.6271C49.5256 14.8054 48.3023 15.1397 46.9921 15.1397C45.682 15.1397 44.4586 14.8054 43.3573 14.2611H42.7166C41.6384 14.2611 40.0901 14.7447 39.3566 15.8107C35.8313 20.9267 32.2469 26.1252 31.0982 27.7941C30.3081 28.9548 30.5062 30.7287 31.3391 31.6472L37.2545 38.276C38.3984 39.5559 40.3736 39.6794 41.6657 38.5263C42.9515 37.3776 43.0644 35.4024 41.916 34.115L37.6342 29.3179C39.1244 27.155 37.8095 29.0631 42.9545 21.5966L39.2723 28.8084C40.6179 30.3169 41.9173 31.7736 43.081 33.0764C44.2663 34.4049 44.6719 36.2628 43.7767 38.276H50.2074C49.3196 36.4061 49.7009 34.423 50.9029 33.0764C52.2256 31.5952 53.3161 30.3732 54.7119 28.8084L51.0297 21.5966C55.5998 28.2286 54.8597 27.1548 56.35 29.3179L52.0685 34.115C50.9198 35.4024 51.0327 37.3776 52.3186 38.5263C53.6064 39.675 55.5816 39.5635 56.7301 38.276Z" fill="#37BD6B" fill-opacity="0.95"/>
<path d="M46.9923 13.5779C50.6928 13.5779 53.6978 10.5761 53.6978 6.87398C53.6978 3.17208 50.693 0.170263 46.9923 0.170263C43.2886 0.170263 40.287 3.17208 40.287 6.87398C40.287 10.5761 43.2886 13.5779 46.9923 13.5779Z" fill="#37BD6B" fill-opacity="0.95"/>
</svg>
