<svg width="16" height="16" viewBox="0 0 16 16" fill="none" xmlns="http://www.w3.org/2000/svg">
<path fill-rule="evenodd" clip-rule="evenodd" d="M7.83728 4.14645C8.05422 4.34171 8.05422 4.65829 7.83728 4.85356L4.89678 7.50001H12.4444C12.7513 7.50001 13 7.72386 13 8.00001C13 8.27616 12.7513 8.50001 12.4444 8.50001H4.89678L7.83728 11.1465C8.05422 11.3417 8.05422 11.6583 7.83728 11.8536C7.62033 12.0488 7.26856 12.0488 7.05161 11.8536L3.16272 8.35356C3.05853 8.25981 3 8.13261 3 8.00001C3 7.86741 3.05853 7.74021 3.16272 7.64646L7.05161 4.14645C7.26856 3.95118 7.62033 3.95118 7.83728 4.14645Z" fill="#37BD6B"/>
</svg>
