<svg width="9" height="9" viewBox="0 0 9 9" fill="none" xmlns="http://www.w3.org/2000/svg">
<path d="M2.05235 0.964466C1.75149 0.663606 1.26535 0.663606 0.964489 0.964466C0.663629 1.26533 0.663629 1.75146 0.964489 2.05232L3.41217 4.5L0.964489 6.94768C0.663629 7.24854 0.663629 7.73467 0.964489 8.03553C1.26535 8.33639 1.75149 8.33639 2.05235 8.03553L4.50002 5.58786L6.9477 8.03553C7.24856 8.33639 7.7347 8.33639 8.03556 8.03553C8.33642 7.73467 8.33642 7.24854 8.03556 6.94768L5.58788 4.5L8.03556 2.05232C8.33642 1.75146 8.33642 1.26533 8.03556 0.964466C7.7347 0.663606 7.24856 0.663606 6.9477 0.964466L4.50002 3.41214L2.05235 0.964466Z" fill="#BE2A2A" fill-opacity="0.68"/>
</svg>
