<svg width="22" height="22" viewBox="0 0 22 22" fill="none" xmlns="http://www.w3.org/2000/svg">
<path d="M16.6284 19.8183C15.8217 20.0567 14.8684 20.1667 13.75 20.1667H8.25003C7.13169 20.1667 6.17837 20.0567 5.3717 19.8183C5.57337 17.435 8.02086 15.5558 11 15.5558C13.9792 15.5558 16.4267 17.435 16.6284 19.8183Z" stroke="#CCCCCC" stroke-linecap="round" stroke-linejoin="round"/>
<path d="M13.75 1.83334H8.25004C3.66671 1.83334 1.83337 3.66668 1.83337 8.25001V13.75C1.83337 17.215 2.87837 19.1125 5.37171 19.8183C5.57337 17.435 8.02087 15.5558 11 15.5558C13.9792 15.5558 16.4267 17.435 16.6284 19.8183C19.1217 19.1125 20.1667 17.215 20.1667 13.75V8.25001C20.1667 3.66668 18.3334 1.83334 13.75 1.83334ZM11 12.9892C9.18504 12.9892 7.71837 11.5133 7.71837 9.69834C7.71837 7.88336 9.18504 6.41668 11 6.41668C12.815 6.41668 14.2817 7.88336 14.2817 9.69834C14.2817 11.5133 12.815 12.9892 11 12.9892Z" stroke="#CCCCCC" stroke-linecap="round" stroke-linejoin="round"/>
<path d="M14.2817 9.69832C14.2817 11.5133 12.815 12.9892 11 12.9892C9.18501 12.9892 7.71838 11.5133 7.71838 9.69832C7.71838 7.88334 9.18501 6.41666 11 6.41666C12.815 6.41666 14.2817 7.88334 14.2817 9.69832Z" stroke="#CCCCCC" stroke-linecap="round" stroke-linejoin="round"/>
</svg>
