<svg width="22" height="22" viewBox="0 0 22 22" fill="none" xmlns="http://www.w3.org/2000/svg">
<path d="M2.90588 6.81995L11 11.5041L19.0392 6.84742" stroke="#CCCCCC" stroke-linecap="round" stroke-linejoin="round"/>
<path d="M11 19.8091V11.4949" stroke="#CCCCCC" stroke-linecap="round" stroke-linejoin="round"/>
<path d="M9.10244 2.27334L4.20745 4.99587C3.09829 5.61004 2.1908 7.15002 2.1908 8.41502V13.5942C2.1908 14.8592 3.09829 16.3992 4.20745 17.0133L9.10244 19.7358C10.1475 20.3133 11.8616 20.3133 12.9066 19.7358L17.8016 17.0133C18.9108 16.3992 19.8183 14.8592 19.8183 13.5942V8.41502C19.8183 7.15002 18.9108 5.61004 17.8016 4.99587L12.9066 2.27334C11.8525 1.68668 10.1475 1.68668 9.10244 2.27334Z" stroke="#CCCCCC" stroke-linecap="round" stroke-linejoin="round"/>
<path d="M15.5833 12.1367V8.78167L6.88416 3.7583" stroke="#CCCCCC" stroke-linecap="round" stroke-linejoin="round"/>
</svg>
