<svg width="22" height="22" viewBox="0 0 22 22" fill="none" xmlns="http://www.w3.org/2000/svg">
<path d="M7.79169 13.0625C7.79169 14.8225 9.24002 16.2708 11 16.2708C12.76 16.2708 14.2084 14.8225 14.2084 13.0625" stroke="#CCCCCC" stroke-miterlimit="10" stroke-linecap="round" stroke-linejoin="round"/>
<path d="M8.07584 1.83334L4.75751 5.16084" stroke="#CCCCCC" stroke-miterlimit="10" stroke-linecap="round" stroke-linejoin="round"/>
<path d="M13.9242 1.83334L17.2425 5.16084" stroke="#CCCCCC" stroke-miterlimit="10" stroke-linecap="round" stroke-linejoin="round"/>
<path d="M1.83331 7.19582C1.83331 5.49999 2.74081 5.36249 3.86831 5.36249H18.1316C19.2591 5.36249 20.1666 5.49999 20.1666 7.19582C20.1666 9.16665 19.2591 9.02915 18.1316 9.02915H3.86831C2.74081 9.02915 1.83331 9.16665 1.83331 7.19582Z" stroke="#CCCCCC"/>
<path d="M3.20831 9.16666L4.50081 17.0867C4.79415 18.865 5.49998 20.1667 8.12165 20.1667H13.6491C16.5 20.1667 16.9216 18.92 17.2516 17.1967L18.7916 9.16666" stroke="#CCCCCC" stroke-linecap="round"/>
</svg>
