<svg width="22" height="22" viewBox="0 0 22 22" fill="none" xmlns="http://www.w3.org/2000/svg">
<path d="M18.3334 7.56251V16.5C18.3334 19.25 16.6925 20.1667 14.6667 20.1667H7.33335C5.30752 20.1667 3.66669 19.25 3.66669 16.5V7.56251C3.66669 4.58334 5.30752 3.89584 7.33335 3.89584C7.33335 4.46418 7.56249 4.97751 7.93833 5.35334C8.31416 5.72918 8.82752 5.95834 9.39585 5.95834H12.6042C13.7409 5.95834 14.6667 5.03251 14.6667 3.89584C16.6925 3.89584 18.3334 4.58334 18.3334 7.56251Z" stroke="#CCCCCC" stroke-linecap="round" stroke-linejoin="round"/>
<path d="M14.6666 3.89584C14.6666 5.03251 13.7408 5.95834 12.6041 5.95834H9.39581C8.82748 5.95834 8.31412 5.72918 7.93829 5.35334C7.56245 4.97751 7.33331 4.46418 7.33331 3.89584C7.33331 2.75918 8.25915 1.83334 9.39581 1.83334H12.6041C13.1725 1.83334 13.6858 2.06251 14.0616 2.43834C14.4375 2.81418 14.6666 3.32751 14.6666 3.89584Z" stroke="#CCCCCC" stroke-linecap="round" stroke-linejoin="round"/>
<path d="M7.33331 11.9167H11" stroke="#CCCCCC" stroke-linecap="round" stroke-linejoin="round"/>
<path d="M7.33331 15.5833H14.6666" stroke="#CCCCCC" stroke-linecap="round" stroke-linejoin="round"/>
</svg>
